<?xml version="1.0" standalone="no"?>
<!DOCTYPE svg PUBLIC "-//W3C//DTD SVG 20010904//EN"
 "http://www.w3.org/TR/2001/REC-SVG-20010904/DTD/svg10.dtd">
<svg version="1.0" xmlns="http://www.w3.org/2000/svg"
 width="484.000000pt" height="484.000000pt" viewBox="0 0 484.000000 484.000000"
 preserveAspectRatio="xMidYMid meet">
<metadata>
Created by potrace 1.11, written by Peter Selinger 2001-2013
</metadata>
<g transform="translate(0.000000,484.000000) scale(0.100000,-0.100000)"
fill="#000000" stroke="none">
<path d="M2373 4006 l-28 -24 -5 -590 -5 -589 -103 124 c-198 237 -438 413
-692 506 -150 55 -243 71 -410 70 -172 0 -255 -19 -395 -88 -271 -132 -467
-395 -557 -745 -25 -97 -31 -141 -35 -280 -6 -174 2 -251 38 -399 80 -321 290
-601 546 -730 157 -78 352 -106 541 -77 378 58 729 307 1017 721 l55 78 2
-571 3 -570 24 -26 c32 -34 80 -35 118 -2 l28 24 5 522 5 522 75 -93 c251
-310 559 -517 883 -591 132 -30 359 -30 472 1 392 106 688 477 755 946 13 93
13 308 -1 398 -26 175 -94 364 -181 505 -63 100 -187 236 -273 298 -339 241
-810 209 -1217 -83 -157 -113 -361 -327 -476 -501 l-37 -55 -5 637 -5 638 -28
24 c-36 31 -78 31 -114 0z m1497 -667 c172 -21 306 -85 428 -203 282 -271 389
-747 257 -1136 -157 -462 -609 -693 -1018 -520 -210 90 -353 225 -671 635
l-156 200 638 5 c577 5 640 7 664 22 51 34 45 112 -13 140 -31 17 -86 18 -702
18 l-667 0 56 88 c142 221 342 444 494 551 168 118 355 189 535 204 22 2 47 4
55 5 9 1 54 -3 100 -9z m-2665 -95 c90 -21 250 -104 342 -179 105 -84 209
-198 368 -400 l126 -160 -588 -5 c-324 -3 -596 -9 -606 -14 -35 -17 -49 -84
-27 -126 20 -38 53 -40 719 -40 l646 -1 33 -45 33 -45 -57 -93 c-342 -561
-771 -845 -1204 -796 -178 20 -321 92 -452 228 -123 128 -199 270 -256 481
-23 86 -26 115 -26 281 -1 172 1 192 26 282 53 188 131 322 262 445 188 178
421 244 661 187z"/>
</g>
</svg>
